<?xml version="1.0" encoding="UTF-8"?>
<svg id="b" data-name="Calque 2" xmlns="http://www.w3.org/2000/svg" xmlns:xlink="http://www.w3.org/1999/xlink" viewBox="0 0 582.46 582.46">
  <defs>
    <style>
      .z {
        fill: url(#v);
      }

      .z, .aa, .ab, .ac, .ad, .ae, .af, .ag, .ah, .ai, .aj, .ak, .al, .am, .an, .ao, .ap {
        stroke-width: 0px;
      }

      .aa {
        fill: url(#w);
      }

      .ab {
        fill: url(#s);
      }

      .ac {
        fill: url(#y);
      }

      .ad {
        fill: url(#g);
      }

      .ae {
        fill: url(#i);
      }

      .af {
        fill: url(#l);
      }

      .ag {
        fill: url(#t);
      }

      .aq {
        clip-path: url(#m);
      }

      .ah {
        fill: none;
      }

      .ai {
        fill: url(#n);
      }

      .aj {
        fill: url(#j);
      }

      .ar {
        clip-path: url(#q);
      }

      .as {
        clip-path: url(#u);
      }

      .ak {
        fill: #1d1d1b;
      }

      .al {
        fill: url(#r);
      }

      .at {
        clip-path: url(#h);
      }

      .am {
        fill: url(#k);
      }

      .an {
        fill: url(#p);
      }

      .ao {
        fill: url(#x);
      }

      .ap {
        fill: url(#o);
      }
    </style>
    <linearGradient id="g" data-name="Dégradé sans nom 26" x1="27.12" y1="385.68" x2="614.56" y2="175.61" gradientUnits="userSpaceOnUse">
      <stop offset="0" stop-color="#64c5e2"/>
      <stop offset="1" stop-color="#3e7cbf"/>
    </linearGradient>
    <clipPath id="h">
      <path class="ah" d="M217.33,143.24c-32.02,3.82-62.47,21.68-84.42,45.89-27.55,30.63-43.86,71.22-46.36,113-.29,5.64-5.14,9.97-10.78,9.61-4.84-.31-8.67-3.96-9.39-8.57-9.15-57.12,5.58-118.73,40.92-165.43,23.2-30.67,53.55-53.91,90.62-67.69,20.01-8.25,43.09,1.74,50.52,22.13,8.66,22.65-7.1,48.33-31.12,51.06Z"/>
    </clipPath>
    <linearGradient id="i" data-name="Dégradé sans nom 37" x1="59.1" y1="291.61" x2="243.88" y2="39.11" gradientUnits="userSpaceOnUse">
      <stop offset="0" stop-color="#fffbf7"/>
      <stop offset=".39" stop-color="rgba(253, 250, 246, 1)" stop-opacity="1"/>
      <stop offset=".54" stop-color="rgba(249, 248, 246, .98)" stop-opacity=".98"/>
      <stop offset=".64" stop-color="rgba(241, 244, 244, .95)" stop-opacity=".95"/>
      <stop offset=".72" stop-color="rgba(230, 238, 242, .9)" stop-opacity=".9"/>
      <stop offset=".79" stop-color="rgba(215, 231, 240, .84)" stop-opacity=".84"/>
      <stop offset=".85" stop-color="rgba(197, 222, 237, .77)" stop-opacity=".77"/>
      <stop offset=".91" stop-color="rgba(175, 211, 233, .69)" stop-opacity=".69"/>
      <stop offset=".96" stop-color="rgba(151, 199, 229, .59)" stop-opacity=".59"/>
      <stop offset="1" stop-color="#7fbce1" stop-opacity=".5"/>
    </linearGradient>
    <linearGradient id="j" data-name="Dégradé sans nom 30" x1="50.36" y1="368.43" x2="235.92" y2="194.41" gradientTransform="translate(80.15 -69.46) rotate(8.38)" gradientUnits="userSpaceOnUse">
      <stop offset="0" stop-color="#f1f5f6" stop-opacity=".2"/>
      <stop offset=".02" stop-color="rgba(236, 242, 245, .23)" stop-opacity=".23"/>
      <stop offset=".15" stop-color="rgba(203, 226, 239, .46)" stop-opacity=".46"/>
      <stop offset=".28" stop-color="rgba(176, 212, 234, .66)" stop-opacity=".66"/>
      <stop offset=".41" stop-color="rgba(154, 201, 230, .81)" stop-opacity=".81"/>
      <stop offset=".53" stop-color="rgba(139, 194, 227, .91)" stop-opacity=".91"/>
      <stop offset=".64" stop-color="rgba(130, 189, 225, .98)" stop-opacity=".98"/>
      <stop offset=".74" stop-color="#7fbce1"/>
    </linearGradient>
    <linearGradient id="k" data-name="Dégradé sans nom 29" x1="98.03" y1="315.06" x2="261.23" y2="161.99" gradientUnits="userSpaceOnUse">
      <stop offset="0" stop-color="#d7eaf4"/>
      <stop offset=".55" stop-color="#7fbce1"/>
    </linearGradient>
    <linearGradient id="l" data-name="Dégradé sans nom 37" x1="283.26" y1="378.25" x2="468.04" y2="125.75" xlink:href="#i"/>
    <clipPath id="m">
      <path class="ah" d="M362.09,279.69c14.31-21.85,17.35-49.07,11.12-73.82-7.99-31.18-29.41-59.81-59.11-80.31-4.03-2.73-4.65-7.75-1.37-11.12,2.82-2.9,7.59-3.65,11.39-2.02,47.33,20.13,85.21,57.29,100.97,100.64,10.35,28.47,11.37,58.06,1.75,87.59-4.59,16.31-24.37,26.28-43.5,21.72-21.46-4.82-32.1-26.35-21.26-42.68Z"/>
    </clipPath>
    <linearGradient id="n" data-name="Dégradé sans nom 37" x1="513.44" y1="1060.76" x2="659.24" y2="861.53" gradientTransform="translate(1504.87 313.64) rotate(125.79)" xlink:href="#i"/>
    <linearGradient id="o" data-name="Dégradé sans nom 30" x1="617.5" y1="1066.68" x2="761.31" y2="931.81" gradientTransform="translate(1514.34 419.29) rotate(134.17)" xlink:href="#j"/>
    <linearGradient id="p" data-name="Dégradé sans nom 29" x1="552.29" y1="1085.39" x2="678.54" y2="966.98" gradientTransform="translate(1504.87 313.64) rotate(125.79)" xlink:href="#k"/>
    <clipPath id="q">
      <path class="ah" d="M134.29,381.32c12.52,27.82,36.43,49.83,63.21,62.15,33.82,15.39,72.76,17.48,108.69,6.69,4.83-1.5,9.9,1.54,11.23,6.76,1.15,4.48-.82,9.1-4.49,11.18-45.48,26.14-101.67,32.06-151.29,14.63-32.59-11.44-61-31.67-83.38-60.96-12.77-15.55-11.06-39.59,3.96-52.69,16.57-14.92,42.79-8.67,52.07,12.24Z"/>
    </clipPath>
    <linearGradient id="r" data-name="Dégradé sans nom 37" x1="749.15" y1="478.73" x2="914.87" y2="252.27" gradientTransform="translate(97.77 1339) rotate(-109.03)" xlink:href="#i"/>
    <linearGradient id="s" data-name="Dégradé sans nom 30" x1="759.61" y1="455.65" x2="930.45" y2="295.42" gradientTransform="translate(5.96 1285.88) rotate(-100.65)" xlink:href="#j"/>
    <linearGradient id="t" data-name="Dégradé sans nom 29" x1="786.3" y1="502.52" x2="934.99" y2="363.06" gradientTransform="translate(97.77 1339) rotate(-109.03)" xlink:href="#k"/>
    <clipPath id="u">
      <path class="ah" d="M473.7,404.31c-27.54,10.42-59.24,7.37-86.49-5.16-34.3-15.93-63.31-45.82-81.55-82.77-2.42-5.01-8.05-6.85-12.5-4.07-3.82,2.38-5.52,7.37-4.32,11.87,14.71,55.98,50.59,105.69,97.46,132.87,30.78,17.85,64.48,25.85,100,22.31,19.48-1.17,34.39-20.29,32.53-42.07-1.74-24.38-24.52-40.93-45.12-32.99Z"/>
    </clipPath>
    <linearGradient id="v" data-name="Dégradé sans nom 37" x1="345.54" y1="788.37" x2="516.76" y2="554.39" gradientTransform="translate(309.67 1205.55) rotate(-25.48) scale(1 -1)" xlink:href="#i"/>
    <linearGradient id="w" data-name="Dégradé sans nom 30" x1="411.68" y1="819.66" x2="578.89" y2="662.84" gradientTransform="translate(411.91 1233.78) rotate(-33.86) scale(1 -1)" xlink:href="#j"/>
    <linearGradient id="x" data-name="Dégradé sans nom 29" x1="386.82" y1="813.36" x2="534.64" y2="674.73" gradientTransform="translate(309.67 1205.55) rotate(-25.48) scale(1 -1)" xlink:href="#k"/>
    <linearGradient id="y" data-name="Dégradé sans nom 37" x1="555.66" y1="883.38" x2="726.89" y2="649.39" gradientTransform="translate(309.67 1205.55) rotate(-25.48) scale(1 -1)" xlink:href="#i"/>
  </defs>
  <g id="c" data-name="Base">
    <g id="d" data-name="Curved Q 2">
      <path class="ak" d="M481.34,445.43c-86.13-13.05-154.73-80.24-169.89-165.68-1.61-9.06-9.63-15.58-18.83-15.58h0c-11.9,0-20.77,10.8-18.68,22.52,18.09,101.31,99.48,180.96,201.66,196.45,11.43,1.73,21.68-7.26,21.68-18.82v-.14c0-9.31-6.73-17.36-15.94-18.75Z"/>
      <path class="ak" d="M291.37,46.69c82.18,14.55,147.49,78.54,164.01,160.02,1.78,8.78,9.62,15.01,18.58,15.01h.14c12.05,0,21.02-11.07,18.62-22.88-19.68-96.52-97.04-172.31-194.38-189.66-11.7-2.09-22.46,6.81-22.46,18.7v.14c0,9.15,6.5,17.08,15.51,18.67Z"/>
      <path class="ak" d="M56.15,206.72C72.67,125.23,137.98,61.24,220.16,46.69c9.01-1.59,15.51-9.53,15.51-18.67v-.14c0-11.88-10.77-20.78-22.46-18.7C115.86,26.54,38.5,102.32,18.82,198.85c-2.41,11.81,6.56,22.88,18.62,22.88h.14c8.96,0,16.8-6.23,18.58-15.01Z"/>
      <path class="ak" d="M220.09,447.76c-85.43-15.16-152.63-83.76-165.68-169.89-1.4-9.21-9.44-15.94-18.75-15.94h-.14c-11.56,0-20.55,10.25-18.82,21.68,15.48,102.18,95.14,183.57,196.45,201.66,11.72,2.09,22.52-6.78,22.52-18.68h0c0-9.2-6.52-17.23-15.58-18.83Z"/>
    </g>
  </g>
  <g id="e" data-name="Version 2">
    <g id="f" data-name="V5">
      <rect class="ad" width="582.46" height="582.46" rx="80.01" ry="80.01"/>
      <g>
        <g class="at">
          <path class="ae" d="M217.33,143.24c-32.02,3.82-62.47,21.68-84.42,45.89-27.55,30.63-43.86,71.22-46.36,113-.29,5.64-5.14,9.97-10.78,9.61-4.84-.31-8.67-3.96-9.39-8.57-9.15-57.12,5.58-118.73,40.92-165.43,23.2-30.67,53.55-53.91,90.62-67.69,20.01-8.25,43.09,1.74,50.52,22.13,8.66,22.65-7.1,48.33-31.12,51.06h0Z"/>
          <path class="aj" d="M269.7,227.71c-27.98-15.29-62.73-17.69-94.26-9.73-39.72,10.18-76.08,35.39-102.01,69.6-3.46,4.65-9.85,5.53-14.18,1.96-3.72-3.07-4.72-8.41-2.66-12.75,25.32-54.06,73.67-107.29,128.86-126.68,36.24-12.74,72.75-5.83,110.5,3.88,20.84,4.55,33.72,26.45,28.03,48.16-5.99,24.35-33.37,37.14-54.28,25.56h0Z"/>
          <path class="am" d="M270.16,220.82c-29.91-11.05-64.64-8.36-94.67,4.11-37.81,15.86-70.12,46.1-90.78,83.72-2.74,5.1-8.93,6.91-13.74,4.01-4.13-2.49-5.89-7.63-4.49-12.23,17.17-57.18,57.25-116.88,109.02-144.1,34-17.88,71.13-16.37,109.89-12.26,21.28,1.46,37.21,21.26,34.75,43.56-2.38,24.96-27.6,41.61-49.98,33.2h0Z"/>
          <path class="af" d="M441.49,229.88c-32.02,3.82-62.47,21.68-84.42,45.89-27.55,30.63-43.86,71.22-46.36,113-.29,5.64-5.14,9.97-10.78,9.61-4.84-.31-8.67-3.96-9.39-8.57-9.15-57.12,5.58-118.73,40.92-165.43,23.2-30.67,53.55-53.91,90.62-67.69,20.01-8.25,43.09,1.74,50.52,22.13,8.66,22.65-7.1,48.33-31.12,51.06h0Z"/>
        </g>
        <g class="aq">
          <path class="ai" d="M362.09,279.69c14.31-21.85,17.35-49.07,11.12-73.82-7.99-31.18-29.41-59.81-59.11-80.31-4.03-2.73-4.65-7.75-1.37-11.12,2.82-2.9,7.59-3.65,11.39-2.02,47.33,20.13,85.21,57.29,100.97,100.64,10.35,28.47,11.37,58.06,1.75,87.59-4.59,16.31-24.37,26.28-43.5,21.72-21.46-4.82-32.1-26.35-21.26-42.68h0Z"/>
          <path class="ap" d="M271.31,274.33c26.35-10.65,46.73-31.4,57.71-54.81,13.71-29.57,14.46-63.83,2.93-95.61-1.6-4.28,1.16-8.69,6.14-9.8,4.27-.95,8.77.84,10.9,4.1,26.6,40.39,40.24,94.88,25.09,138.33-9.95,28.54-34.63,48.35-62.07,67.66-14.54,11.03-37.71,9.2-50.79-4.2-14.88-14.79-9.72-37.79,10.09-45.68h0Z"/>
          <path class="an" d="M276.18,277.74c24.23-13.78,40.82-36.82,47.65-61.34,8.47-30.94,3.31-64.93-13.57-94.95-2.32-4.03-.35-8.74,4.38-10.45,4.06-1.47,8.83-.25,11.49,2.72,33.28,36.68,56.16,88.91,48.65,133.76-4.93,29.46-25.93,52.1-49.74,74.59-12.49,12.71-35.72,13.75-50.97,2.1-17.27-12.8-16.13-36.19,2.11-46.44h0Z"/>
        </g>
        <g class="ar">
          <path class="al" d="M134.29,381.32c12.52,27.82,36.43,49.83,63.21,62.15,33.82,15.39,72.76,17.48,108.69,6.69,4.83-1.5,9.9,1.54,11.23,6.76,1.15,4.48-.82,9.1-4.49,11.18-45.48,26.14-101.67,32.06-151.29,14.63-32.59-11.44-61-31.67-83.38-60.96-12.77-15.55-11.06-39.59,3.96-52.69,16.57-14.92,42.79-8.67,52.07,12.24h0Z"/>
          <path class="ab" d="M190.25,307.47c-4.76,30.13,3.33,62.37,19.2,88.45,20.12,32.81,51.93,57.88,88.3,70.68,4.92,1.68,7.52,7.19,5.77,12.24-1.5,4.33-5.71,6.9-9.97,6.4-52.92-6.04-111.82-33.22-144.2-77.17-21.27-28.86-26.06-64.1-28.85-101.34-2.22-20.31,12.49-38.82,32.43-40.45,22.26-2.18,41,18.63,37.31,41.2h0Z"/>
          <path class="ag" d="M184.31,309.2c-.62,30.56,11.75,61.18,30.98,84.5,24.36,29.31,59.22,49.12,96.93,56.09,5.1.89,8.42,5.94,7.37,11.2-.9,4.52-4.72,7.73-9,7.89-53.17,2.32-115.13-15.34-153.12-53.75-24.95-25.22-34.47-59.33-42.27-95.74-4.95-19.74,7.1-40.36,26.61-45.11,21.72-5.65,43.09,12.01,42.5,34.91h0Z"/>
        </g>
        <g class="as">
          <path class="z" d="M473.7,404.31c-27.54,10.42-59.24,7.37-86.49-5.16-34.3-15.93-63.31-45.82-81.55-82.77-2.42-5.01-8.05-6.85-12.5-4.07-3.82,2.38-5.52,7.37-4.32,11.87,14.71,55.98,50.59,105.69,97.46,132.87,30.78,17.85,64.48,25.85,100,22.31,19.48-1.17,34.39-20.29,32.53-42.07-1.74-24.38-24.52-40.93-45.12-32.99h0Z"/>
          <path class="aa" d="M483.55,304.67c-16.84,26.07-44.19,43.32-72.93,49.76-36.27,7.97-75.64.8-110-19.11-4.62-2.73-10.16-.77-12.3,4.37-1.84,4.41-.58,9.7,2.78,12.77,41.57,38.24,101.56,65.72,153.99,59.43,34.43-4.13,61.46-26.26,88.42-51.49,15.2-13.19,17.18-38.72,4.14-56.02-14.32-19.57-41.56-19.34-54.09.29h0Z"/>
          <path class="ao" d="M486.6,310.75c-20.05,23.04-49.36,35.66-78.64,37.34-36.92,1.97-74.93-11.55-106.34-36.84-4.21-3.45-9.95-2.41-12.74,2.32-2.4,4.06-1.84,9.51,1.09,13.08,36.14,44.61,91.91,81.58,144.6,83.9,34.6,1.53,64.23-15.96,94.18-36.52,16.75-10.57,22.04-35.5,11.39-54.74-11.61-21.7-38.6-25.91-53.55-8.54h0Z"/>
          <path class="ac" d="M622.51,228.15c-27.54,10.42-59.24,7.37-86.49-5.16-34.3-15.93-63.31-45.82-81.55-82.77-2.42-5.01-8.05-6.85-12.5-4.07-3.82,2.38-5.52,7.37-4.32,11.87,14.71,55.98,50.59,105.69,97.46,132.87,30.78,17.85,64.48,25.85,100,22.31,19.48-1.17,34.39-20.29,32.53-42.07-1.74-24.38-24.52-40.93-45.12-32.99h0Z"/>
        </g>
      </g>
    </g>
  </g>
</svg>